
<svg width="98px" height="92px" viewBox="0 0 98 92" version="1.1" xmlns="http://www.w3.org/2000/svg" xmlns:xlink="http://www.w3.org/1999/xlink">
    <g id="Page-1" stroke="none" stroke-width="1" fill="none" fill-rule="evenodd">
        <g id="noun_Mole-Face_1539005" fill="#000000">
            <g id="Group">
                <path d="M95.8,69.9 C95.1,68.5 94.3,67.2 93.4,66.1 C94.1,59.3 91.6,54.2 85.6,49.8 C85.4,44.6 84.4,38.9 82.7,32.6 C76.7,10.5 66.4,0.6 49.1,0.6 C31.8,0.6 21.5,10.5 15.5,32.6 C13.8,38.8 12.9,44.5 12.7,49.5 L12.7,49.4 C6,54.1 3.5,59.5 4.6,67 C4,67.9 3.5,68.8 2.9,69.8 C0.4,74.8 0.2,78.9 2.1,82.1 C2.9,83.4 4.1,84.5 5.6,85.4 C6,85.7 6.3,86.2 6.1,86.7 C5.9,87.3 5.7,87.8 5.6,88.2 C5.4,88.8 5.8,89.4 6.4,89.5 L8.3,89.9 C8.8,90 9.4,89.7 9.5,89.2 C9.6,88.9 9.7,88.5 9.9,88.1 C10.1,87.6 10.6,87.3 11.1,87.4 C12.5,87.7 14.1,87.9 15.8,88 C16.4,88 16.8,88.5 16.8,89.1 L16.8,90.1 C16.8,90.7 17.3,91.2 17.9,91.2 L19.8,91.2 C20.4,91.2 20.9,90.7 20.9,90.1 L20.9,89.2 C20.9,88.6 21.4,88.2 21.9,88.1 C23.6,88 25.2,87.9 26.6,87.7 C27.1,87.6 27.6,87.9 27.8,88.4 C27.9,88.7 28,89 28.1,89.2 C28.3,89.7 28.8,90 29.3,89.9 L31.2,89.5 C31.8,89.4 32.2,88.8 32,88.2 C31.9,88 31.9,87.7 31.8,87.5 C31.6,87 31.9,86.4 32.4,86.2 C34.8,85.2 36.5,83.8 37.6,82.1 C37.8,81.9 37.9,81.6 38,81.3 C41.4,81.5 45.2,81.6 49.3,81.6 C53.5,81.6 57.4,81.5 60.9,81.3 C61,81.6 61.1,81.8 61.3,82.1 C62.3,83.7 63.7,84.9 65.7,85.8 C66.3,86.1 66.5,86.7 66.3,87.3 C66.2,87.5 66.2,87.7 66.1,87.9 C65.9,88.6 66.3,89.4 67.1,89.5 L68.5,89.8 C69.2,89.9 69.8,89.6 70,88.9 C70.1,88.7 70.1,88.5 70.2,88.4 C70.4,87.8 71,87.4 71.7,87.5 C73,87.7 74.4,87.9 75.9,87.9 C76.6,87.9 77.1,88.5 77.1,89.2 L77.1,89.6 C77.1,90.3 77.7,90.9 78.4,90.9 L79.8,90.9 C80.5,90.9 81.1,90.3 81.1,89.6 L81.1,89.1 C81.1,88.4 81.6,87.9 82.3,87.8 C83.9,87.7 85.4,87.5 86.7,87.3 C87.3,87.2 87.9,87.6 88.1,88.2 C88.2,88.4 88.2,88.6 88.3,88.8 C88.5,89.4 89.1,89.8 89.8,89.7 L91.2,89.4 C91.9,89.2 92.4,88.5 92.2,87.8 C92.1,87.6 92.1,87.3 92,87.1 C91.8,86.5 92.1,85.8 92.6,85.6 C94.4,84.7 95.8,83.5 96.7,82 C98.5,79 98.2,74.9 95.8,69.9 Z M89.5,62.5 C88.6,62 87.7,61.5 86.8,61.1 C85.7,60.7 85.1,59.6 85.3,58.5 C85.5,57.3 85.6,56.1 85.7,54.9 C87.9,57.2 89.2,59.6 89.5,62.5 Z M19.5,33.6 C25,13.2 33.9,4.5 49.2,4.5 C64.5,4.5 73.4,13.2 78.9,33.6 C81.5,43.2 82.3,51.4 81.2,57.9 C81,59.1 80,59.9 78.8,59.9 C78.8,59.9 78.8,59.9 78.8,59.9 C72.5,59.9 67.9,61.7 64.6,65.6 C60.2,63.2 55,61.9 49.2,61.9 C43.5,61.9 38.2,63.2 33.9,65.6 C30.6,61.7 26.1,59.9 19.8,59.9 C18.4,59.9 17.3,58.9 17.1,57.6 C16.1,51.1 16.9,43.1 19.5,33.6 Z M12.8,54.5 C12.9,55.9 13,57.2 13.2,58.4 C13.4,59.6 12.7,60.8 11.6,61.3 C10.4,61.8 9.4,62.4 8.4,63.1 C8.6,59.7 10,57 12.8,54.5 Z M34.1,80 C33.5,80.9 32.5,81.7 31.2,82.4 C30.6,82.7 30,82.4 29.8,81.8 C29.7,81.4 29.5,81 29.4,80.7 C29.2,80.2 28.7,79.9 28.2,80 L26.4,80.4 C25.8,80.5 25.4,81.1 25.6,81.7 C25.7,82 25.8,82.2 25.9,82.5 C26.1,83.1 25.7,83.8 25,83.9 C24.1,84 23.1,84.1 22.1,84.1 C21.5,84.1 21,83.6 21,83 L21,82 C21,81.4 20.5,80.9 19.9,80.9 L18,80.9 C17.4,80.9 16.9,81.4 16.9,82 L16.9,83 C16.9,83.6 16.4,84.1 15.8,84.1 C14.7,84 13.7,83.9 12.8,83.7 C12.2,83.6 11.8,82.9 12,82.3 C12.1,82.1 12.1,81.9 12.2,81.7 C12.4,81.1 12,80.5 11.4,80.4 L9.6,80 C9.1,79.9 8.5,80.2 8.4,80.7 C8.4,80.7 8.4,80.7 8.4,80.7 C8.2,81.4 7.3,81.7 6.7,81.2 C6.3,80.8 6,80.5 5.7,80.1 C4.5,78.2 4.8,75.4 6.6,71.7 C9.3,66.2 13.2,63.9 19.9,63.9 C26.6,63.9 30.5,66.2 33.2,71.7 C35,75.3 35.3,78.1 34.1,80 Z M49.2,77.7 C48.5,77.7 47.9,77.7 47.3,77.7 C42.9,77.7 39.1,74.9 37.3,70.9 C37.1,70.6 37,70.2 36.8,69.9 C36.6,69.6 36.4,69.2 36.3,68.9 C40,67 44.5,65.9 49.3,65.9 C54.2,65.9 58.7,67 62.4,69 C62.2,69.3 62.1,69.6 61.9,69.9 C61.7,70.2 61.6,70.6 61.4,70.9 C59.6,74.9 55.8,77.6 51.4,77.7 C50.7,77.7 49.9,77.7 49.2,77.7 Z M93.1,80 C92.7,80.6 92.3,81.1 91.6,81.5 C90.9,82 89.9,81.7 89.6,80.8 C89.6,80.8 89.6,80.8 89.6,80.8 C89.4,80.2 88.7,79.8 88.1,79.9 L86.7,80.2 C86,80.4 85.5,81.1 85.7,81.9 C85.7,82 85.7,82 85.8,82.1 C86,82.9 85.5,83.7 84.8,83.8 C84,83.9 83.2,84 82.3,84 C81.6,84.1 80.9,83.5 80.9,82.7 L80.9,82.1 C80.9,81.4 80.3,80.8 79.6,80.8 L78.2,80.8 C77.5,80.8 76.9,81.4 76.9,82.1 L76.9,82.7 C76.9,83.4 76.3,84 75.5,84 C74.7,83.9 73.9,83.9 73.2,83.8 C72.4,83.7 71.9,82.9 72.1,82.1 C72.1,82 72.1,82 72.2,81.9 C72.4,81.2 72,80.4 71.2,80.2 L69.8,79.9 C69.1,79.8 68.5,80.1 68.3,80.8 C68.3,80.9 68.3,81 68.2,81 C67.9,81.8 67,82.2 66.3,81.7 C65.5,81.2 64.9,80.6 64.5,79.9 C63.3,78 63.6,75.2 65.4,71.5 C68.1,66 72,63.7 78.7,63.7 C85.4,63.7 89.3,66 92,71.5 C94,75.3 94.3,78.1 93.1,80 Z" id="Shape" fill-rule="nonzero"></path>
                <path d="M60.8,22.6 C61.2,22.6 61.6,22.6 61.9,22.7 C62.8,22.8 63.7,22.3 64,21.5 L64,21.4 C64.4,20.2 63.7,18.9 62.5,18.8 C61.9,18.7 61.4,18.7 60.8,18.7 C57.9,18.7 55.5,19.7 54.2,21.3 C53.2,22.6 54.1,24.5 55.7,24.5 C56.3,24.5 56.9,24.3 57.3,23.8 C57.9,23 59.4,22.6 60.8,22.6 Z" id="Path"></path>
                <path d="M37.8,22.6 C39.5,22.6 41,23.1 41.6,23.7 C42,24.1 42.5,24.4 43,24.4 L43.4,24.4 C44.9,24.4 45.8,22.7 44.9,21.5 C43.6,19.7 41,18.6 37.7,18.6 C36.8,18.6 35.9,18.7 35.1,18.9 C34,19.1 33.4,20.4 33.9,21.5 L34.1,21.8 C34.5,22.6 35.3,22.9 36.1,22.8 C36.7,22.7 37.3,22.6 37.8,22.6 Z" id="Path"></path>
                <path d="M38.3,34.1 C38.3,37.1 41.2,40.1 44.1,41.9 C45.6,42.8 45.2,45.1 43.5,45.4 C43.1,45.5 42.7,45.5 42.3,45.5 C41.7,45.5 41.1,45.4 40.5,45.3 C39.6,45.1 38.8,45.6 38.4,46.4 L38.3,46.6 C37.8,47.7 38.4,49 39.6,49.2 C40.5,49.4 41.4,49.5 42.3,49.5 C44.6,49.5 46.6,48.9 48.1,47.9 C48.7,47.5 49.6,47.5 50.2,47.9 C51.7,48.9 53.7,49.5 56,49.5 C57.2,49.5 58.3,49.3 59.3,49 C60.4,48.7 60.9,47.3 60.3,46.3 L60.2,46.1 C59.8,45.4 58.9,45 58.1,45.3 C57.5,45.5 56.8,45.6 56,45.6 C55.5,45.6 55.1,45.6 54.6,45.5 C52.9,45.2 52.5,42.9 54,42 C57,40.2 59.8,37.2 59.8,34.2 C59.8,28.7 53.1,28.7 49,28.7 C44.9,28.7 38.3,28.6 38.3,34.1 Z M49.1,32.6 C52.4,32.6 55.9,32.7 55.9,34.1 C55.9,36.1 50.8,39.7 49.1,39.7 C47.4,39.7 42.3,36.1 42.3,34.1 C42.3,32.7 45.8,32.6 49.1,32.6 Z" id="Shape" fill-rule="nonzero"></path>
                <path d="M49.3,58.6 C59.7,58.6 67.3,52.3 67.3,43.6 C67.3,41.5 66.9,39.6 66.1,37.8 C65.6,36.7 64.3,36.3 63.3,37 L63.1,37.1 C62.3,37.6 62.1,38.6 62.5,39.5 C63.1,40.7 63.3,42.1 63.3,43.6 C63.3,51.1 56,54.6 49.3,54.6 C42.6,54.6 35.3,51.2 35.3,43.6 C35.3,42.1 35.6,40.8 36.1,39.5 C36.5,38.6 36.3,37.6 35.5,37.1 L35.3,37 C34.3,36.3 33,36.7 32.5,37.8 C31.7,39.6 31.3,41.5 31.3,43.6 C31.3,52.3 38.9,58.6 49.3,58.6 Z" id="Path"></path>
            </g>
        </g>
    </g>
</svg>